<svg width="1210" height="317" viewBox="190 333 1210 317" fill="none" xmlns="http://www.w3.org/2000/svg">
<g clip-path="url(#clip0_0_15)">
<path d="M248.103 350.281C266.219 343.01 299.148 345.494 318.987 345.5L432.043 345.452C446.453 344.985 460.754 350.61 470.907 360.847C478.507 368.615 483.851 378.305 486.364 388.879C489.103 400.197 488.332 417.261 488.308 429.26L488.285 473.297C485.746 472.787 483.184 472.394 480.609 472.12C455.063 469.411 430.877 478.227 416.059 499.408C401.567 520.124 394.004 532.726 366.999 538.371C330.499 545.999 309.866 519.605 275.209 515.953C251.976 513.596 233.999 522.181 215.729 535.037C215.681 533.621 215.646 532.203 215.622 530.786C214.926 487.575 215.944 443.981 215.706 400.789C215.109 381.277 229.763 357.643 248.103 350.281ZM397.448 445.828C394.784 420.165 371.855 401.501 346.192 404.108C320.446 406.723 301.715 429.748 304.387 455.494C307.06 481.239 330.122 499.924 355.855 497.192C381.505 494.469 400.112 471.492 397.448 445.828Z" fill="#FE7917"/>
<path d="M630.207 375.645C648.68 375.844 664.555 374.434 682.757 378.87C715.334 386.81 733.53 416.184 725.394 448.885C721.454 464.72 711.602 473.558 697.753 481.429C735.014 492.325 746.191 530.404 732.16 564.198C712.801 602.502 668.135 599.324 632.303 599.331L567.68 599.332L567.652 375.66C588.383 375.98 609.45 375.401 630.207 375.645ZM668.283 504.146C652.363 502.13 626.979 502.656 610.61 503.236L610.605 561.114C630.231 561.201 669.976 565.145 684.121 552.638C700.751 534.51 690.745 506.992 668.283 504.146ZM675.62 420.871C662.916 409.333 627.647 412.7 610.687 412.947C610.504 430.321 610.467 447.697 610.579 465.071C629.158 465.192 660.97 468.771 675.271 457.637C684.885 447.388 685.843 430.156 675.62 420.871Z" fill="#001743"/>
<path d="M466.25 493.117C476.006 492.651 478.743 492.965 488.236 495.334L488.319 542.98C488.351 555.31 489.235 569.89 486.646 581.785C480.989 607.772 458.906 625.801 432.326 625.586C374.939 625.147 317.209 626.874 259.926 624.701C251.708 624.389 238.03 615.011 232.112 609.472C217.959 594.024 215.395 580.946 215.725 560.892C288.921 504.153 298.215 568.664 364.439 560.808C385.628 558.402 405.043 547.829 418.564 531.336C433.7 512.531 438.04 496.388 466.25 493.117Z" fill="#FE7917"/>
<path d="M1303.33 442.159C1328.12 438.924 1357.77 450.093 1372.74 470.282C1386.85 489.307 1390.5 511.631 1387.28 534.521H1271.96C1276.66 553.504 1288.44 564.95 1308.17 567.136C1325.84 569.094 1338.51 563.614 1351.95 552.926L1360.56 560.87C1365.85 566.023 1372.55 571.731 1378.12 576.725C1362.39 593.249 1349.72 598.614 1327.04 602.051C1247.89 614.042 1203.23 531.548 1249.16 469.732C1261.31 453.36 1282.64 444.299 1303.33 442.159ZM1348.56 505.88C1342.87 484.861 1329.74 473.847 1307.12 475.866C1289.38 478.358 1276.34 487.621 1272.91 505.998L1314.37 506.112C1325.03 506.07 1338.1 506.352 1348.56 505.88Z" fill="#001743"/>
<path d="M1128.11 442.152C1132.93 441.742 1137.77 441.733 1142.6 442.126C1184.79 445.395 1211.33 478.395 1211.25 519.658C1211.24 524.663 1210.79 529.504 1210.35 534.484C1172.45 534.666 1134.54 534.655 1096.64 534.451C1106.84 573.307 1148.03 576.474 1175.63 552.831C1178.49 555.71 1181.65 558.574 1184.63 561.36C1190.22 566.572 1195.91 571.689 1201.67 576.708C1171.98 607.961 1118.74 612.086 1084.48 585.826C1050.23 559.568 1047.13 502.907 1073.57 470.223C1087.64 452.812 1106.13 444.473 1128.11 442.152ZM1172.26 505.88C1168.23 484.158 1152.71 474.449 1131.23 475.798C1111.42 479.205 1102.86 486.984 1097.22 506.016L1139.51 506.092C1150.42 506.18 1161.34 506.109 1172.26 505.88Z" fill="#001743"/>
<path d="M836.483 445.505L961.26 445.517L961.215 472.918C953.79 482.66 943.177 494.742 935.242 504.389C919.32 523.586 903.615 542.967 888.142 562.529L963.233 562.62L963.165 599.3L833.475 599.321L833.385 570.741C857.385 542.502 882.435 510.357 906.075 481.425C883.537 480.894 858.982 481.27 836.407 481.461L836.483 445.505Z" fill="#001743"/>
<path d="M990.69 375.662L1030.65 375.667L1030.58 599.256L990.712 599.329L990.69 375.662Z" fill="#001743"/>
<path d="M764.685 445.428L805.545 445.481L805.5 599.277L764.61 599.304C765.48 549.283 764.933 495.53 764.685 445.428Z" fill="#001743"/>
<path d="M781.852 372.587C795.285 370.261 808.05 379.285 810.345 392.725C812.632 406.164 803.587 418.913 790.14 421.175C776.745 423.429 764.055 414.412 761.767 401.017C759.48 387.622 768.465 374.905 781.852 372.587Z" fill="#001743"/>
<circle cx="351" cy="451" r="61" stroke="url(#paint0_linear_0_15)" stroke-width="28"/>
</g>
<defs>
<linearGradient id="paint0_linear_0_15" x1="329" y1="413" x2="377" y2="488.5" gradientUnits="userSpaceOnUse">
<stop stop-color="#FD9316"/>
<stop offset="1" stop-color="#FD7C13"/>
</linearGradient>
<clipPath id="clip0_0_15">
<rect width="1536" height="1024" fill="white"/>
</clipPath>
</defs>
</svg>
