<svg width="512" height="512" viewBox="80 80 864 864" fill="none" xmlns="http://www.w3.org/2000/svg">
<g clip-path="url(#clip0_0_7)">
<path d="M714.459 139.145C754.684 138.284 794.859 155.632 823.169 184.021C843.194 203.893 857.424 228.852 864.314 256.209C868.884 274.539 868.479 294.891 868.474 313.572L868.449 358.803L868.439 499.149C799.459 483.569 734.749 492.83 685.499 547.435C666.114 568.925 648.964 591.795 628.609 612.38C625.4 615.42 622.12 618.385 618.775 621.275C598.475 638.94 574.284 651.555 548.174 658.09C532.054 662.255 522.704 662.61 506.699 663.065C459.693 665.065 421.046 641.019 379.721 622.264C304.904 588.315 218.865 595.785 155.898 650.53C155.092 625.565 155.768 596.295 155.759 571.11L155.787 414.524L155.772 327.834C155.76 307.323 154.716 280.696 158.776 261.052C164.702 233.376 178.141 207.868 197.614 187.33C224.858 158.06 262.581 140.767 302.538 139.227C303.192 139.206 303.846 139.193 304.499 139.187L596.134 139.16L677.339 139.167C689.644 139.165 702.184 139.408 714.459 139.145ZM639.625 420.309C636.455 349.763 576.795 295.086 506.24 298.071C435.428 301.067 380.507 360.995 383.686 431.8C386.864 502.605 446.934 557.37 517.731 554.01C588.266 550.66 642.79 490.856 639.625 420.309Z" fill="url(#paint0_linear_0_7)"/>
<path d="M806.585 544.71C823.055 543.46 852.52 548.715 868.465 553.405L868.455 675.12L868.475 714.275C868.48 731.6 868.765 749.68 864.69 766.695C858.25 792.865 845.18 816.935 826.73 836.585C801.135 863.765 761.455 884.305 723.91 884.935C692.13 885.47 659.44 885.05 627.62 885.045L443.977 885.04L351.338 885.05C337.39 885.055 323.148 884.845 309.23 885.045C267.054 885.655 231.16 869.085 200.929 840.36C200.581 840.02 200.236 839.68 199.895 839.335C179.067 818.42 163.626 789.785 158.156 760.64C155.708 747.6 155.722 734.46 155.733 721.245C156.064 720.86 156.398 720.48 156.736 720.1C165.432 710.275 175.058 701.93 184.955 693.615C231.275 654.695 287.601 644.595 344.609 665.055C362.071 671.325 380.601 681.045 397.551 689.21C437.429 708.425 476.961 718.595 521.55 715.41C582.005 711.685 637.415 682.015 677.66 637.25C718.785 591.515 737.28 549.1 806.585 544.71Z" fill="#FE6D03"/>
<circle cx="511.5" cy="425.5" r="164" stroke="url(#paint1_linear_0_7)" stroke-width="71"/>
</g>
<defs>
<linearGradient id="paint0_linear_0_7" x1="156" y1="139" x2="637.5" y2="603.5" gradientUnits="userSpaceOnUse">
<stop stop-color="#FD7401"/>
<stop offset="1" stop-color="#FE6703"/>
</linearGradient>
<linearGradient id="paint1_linear_0_7" x1="451.351" y1="321.606" x2="582.585" y2="528.027" gradientUnits="userSpaceOnUse">
<stop stop-color="#FD8F00"/>
<stop offset="1" stop-color="#FE7202"/>
</linearGradient>
<clipPath id="clip0_0_7">
<rect width="1024" height="1024" fill="white"/>
</clipPath>
</defs>
</svg>
