<svg width="1695" height="300" viewBox="0 0 1695 300" fill="none" xmlns="http://www.w3.org/2000/svg">
<g clip-path="url(#clip0_520_113)">
<g clip-path="url(#clip1_520_113)">
<circle cx="149.996" cy="150" r="119.766" stroke="#0B0B0B" stroke-width="16.4062"/>
<mask id="mask0_520_113" style="mask-type:alpha" maskUnits="userSpaceOnUse" x="22" y="22" width="256" height="256">
<circle cx="150.004" cy="150" r="127.969" fill="#D9D9D9"/>
</mask>
<g mask="url(#mask0_520_113)">
<path d="M127.936 127.699C144.723 121.244 154.291 104.238 152.092 87.1645C157.337 84.3227 159.801 77.9738 157.602 72.2523C155.214 66.0395 148.245 62.9407 142.025 65.3291C141.919 65.3744 141.813 65.4273 141.715 65.4651C131.375 54.7703 115.269 50.6814 100.508 56.35C85.7467 62.0186 76.5334 75.8575 76.027 90.7168C75.9211 90.7546 75.8078 90.7849 75.702 90.8227C69.4892 93.211 66.3903 100.18 68.7787 106.392C70.9781 112.106 77.0549 115.175 82.852 113.769C92.6549 127.926 111.157 134.138 127.944 127.684L127.936 127.699ZM87.7874 96.0907C85.0363 88.9407 88.6037 80.9215 95.7537 78.1703C100.719 76.2657 106.101 77.407 109.85 80.6721C110.447 75.7366 113.674 71.2849 118.64 69.3727C125.79 66.6215 133.809 70.1889 136.56 77.3389C139.009 83.718 136.432 90.7773 130.771 94.1785C132.335 95.7279 133.612 97.625 134.451 99.8093C137.641 108.108 133.499 117.42 125.208 120.609C116.909 123.799 107.597 119.657 104.408 111.366C103.569 109.174 103.244 106.914 103.365 104.715C96.8874 105.977 90.2438 102.47 87.7874 96.0907Z" fill="#0B0B0B"/>
<path d="M100.695 96.979C103.976 96.979 106.635 94.3193 106.635 91.0384C106.635 87.7574 103.976 85.0977 100.695 85.0977C97.4136 85.0977 94.7539 87.7574 94.7539 91.0384C94.7539 94.3193 97.4136 96.979 100.695 96.979Z" fill="#0B0B0B"/>
<path d="M123.628 88.2144C126.909 88.2144 129.569 85.5547 129.569 82.2737C129.569 78.9927 126.909 76.333 123.628 76.333C120.347 76.333 117.688 78.9927 117.688 82.2737C117.688 85.5547 120.347 88.2144 123.628 88.2144Z" fill="#0B0B0B"/>
<path d="M112.787 109.283L112.061 111.127L111.328 112.963C112.757 113.53 114.797 113.991 117.133 113.991C121.705 113.991 127.374 112.23 131.576 106.078L128.311 103.841C122.189 112.797 113.172 109.426 112.787 109.283Z" fill="#0B0B0B"/>
<path d="M164.222 -3.67659L156.15 63.2356C158.622 65.0495 160.632 67.5588 161.811 70.6274C164.411 77.3844 162.272 84.9652 156.838 89.417C158.009 107.98 147.088 125.205 129.53 131.954C116.304 137.041 101.89 135.181 90.6438 127.737C80.4025 146.579 65.3391 190.333 82.7077 268.666C83.7356 273.284 87.8246 276.428 92.367 276.428C93.0775 276.428 93.7955 276.352 94.5211 276.194C99.8647 275.007 103.228 269.716 102.049 264.38C91.0897 214.935 94.0374 181.052 99.5926 159.655C107.075 168.891 117.203 182.677 127.339 200.438C127.444 200.627 127.55 200.809 127.648 200.99L119.41 265.287C118.964 268.756 120.075 272.256 122.441 274.833L165.409 321.663L162.786 330.62C160.942 336.916 164.555 343.522 170.858 345.366C171.977 345.691 173.095 345.849 174.199 345.849C179.339 345.849 184.085 342.486 185.604 337.301L190.109 321.913C191.28 317.922 190.268 313.606 187.456 310.538L143.694 262.831L150.482 209.811C153.104 209.123 156.097 208.231 159.559 207.097C160.836 206.681 162.008 206.273 163.134 205.873L201.892 221.715L231.943 262.445C234.203 265.506 237.77 267.275 241.504 267.275C242.124 267.275 242.751 267.23 243.379 267.124L261.397 264.244C267.882 263.209 272.296 257.117 271.261 250.632C270.225 244.147 264.126 239.726 257.648 240.769L246.78 242.507L219.041 204.913C217.749 203.159 215.995 201.791 213.977 200.967L181.697 187.771C188.348 180.19 197.523 168.77 209.344 151.938C222.473 133.247 218.633 110.429 215.247 90.3013C212.723 75.2908 210.546 62.3211 216.033 55.1408C218.973 51.2937 224.241 49.0414 232.14 48.2629C234.316 48.0513 235.911 46.1089 235.692 43.9321C235.48 41.7554 233.545 40.1606 231.361 40.3798C221.165 41.385 214.091 44.6426 209.737 50.3263C202.149 60.2426 204.719 75.4873 207.432 91.6164C210.569 110.247 214.121 131.357 202.859 147.388C191.93 162.958 183.322 173.766 176.98 181.097C168.493 142.173 170.08 114.487 170.08 114.487L169.929 114.434L184.372 -5.35449" fill="#0B0B0B"/>
</g>
<path d="M238.688 266.393L224.198 249.423L213.362 237.104L231.968 222.486L255.53 250.266C256.076 250.224 258.751 249.357 265.089 246.229C273.012 242.319 280.448 253.258 280.959 259.8C281.47 266.343 268.641 270.636 257.319 273.166C248.262 275.19 241.124 269.494 238.688 266.393Z" fill="#0B0B0B"/>
</g>
<path d="M396.393 109.757C413.835 89.4086 460.992 49.0342 481.018 49.0342C490.708 49.0342 496.199 50.0032 503.951 52.2641C507.827 53.5561 509.119 56.7861 508.15 60.016C506.212 65.83 503.951 72.9359 501.69 81.6567C500.721 84.8867 496.845 86.1787 496.199 82.3027C493.292 69.3829 485.249 57.1737 467.452 61.954C449.655 66.7343 398.654 109.757 395.747 131.075C395.101 161.437 395.424 184.369 397.039 207.948C397.362 217.315 400.269 221.191 409.636 224.421L415.773 226.682C418.357 227.651 418.68 231.527 415.127 231.527C396.716 230.881 378.628 230.558 360.541 231.204L354.081 231.527C351.82 231.527 352.143 227.651 354.081 226.682L360.218 224.098C366.678 221.191 368.616 220.868 368.939 209.24C370.231 174.356 368.939 150.132 368.939 114.279C368.939 105.881 365.063 101.682 360.218 99.4215L355.696 97.4835C352.466 96.1915 351.82 92.3156 355.696 91.6696C364.74 90.0546 378.951 87.4707 388.964 86.1787C395.424 85.2097 397.039 89.0856 396.716 94.2536C396.716 98.4525 396.393 105.558 396.393 109.757Z" fill="#0B0B0B"/>
<path d="M480.697 233.142C436.77 232.077 408.023 203.427 408.023 159.176C408.023 112.342 439.354 84.5645 478.759 84.5645C518.165 84.5645 541.421 103.944 546.266 130.753C547.235 137.536 544.651 138.828 540.775 138.828H444.199C436.124 138.828 437.093 148.195 437.093 153.363C437.093 189.215 462.287 212.148 497.17 212.148C539.935 212.148 552.08 151.425 558.539 139.151C560.477 135.598 564.999 135.275 563.707 139.797C558.216 162.406 546.266 234.757 480.697 233.142ZM444.199 133.983H509.444C511.705 133.983 513.32 133.337 512.674 130.107C506.214 103.944 493.294 89.4094 475.53 89.4094C457.765 89.4094 444.522 102.975 439.354 128.169C438.708 131.722 440.646 133.983 444.199 133.983Z" fill="#0B0B0B"/>
<path d="M620.554 89.7001C568.875 89.3771 567.648 132.142 561.479 147.129C555.955 160.468 549.495 160.468 555.762 144.125C557.732 138.957 566.55 114.861 572.137 105.559C581.827 89.4094 605.083 85.6626 622.848 84.5645C660.961 84.5645 679.372 104.913 679.372 142.704C681.504 165.636 673.332 211.405 683.894 217.316C686.478 217.316 688.416 216.347 689.708 213.763C691.646 209.887 695.199 212.471 693.584 216.993C689.837 237.761 651.368 238.569 649.656 216.347C567.842 281.947 495.684 142.478 650.302 131.399C649.01 109.758 646.749 89.8939 620.587 89.7324L620.554 89.7001ZM650.27 137.859C600.529 146.257 588.901 159.499 588.901 187.6C586.285 226.263 631.084 229.557 649.947 206.98C650.916 193.414 651.885 174.357 650.27 137.859Z" fill="#0B0B0B"/>
<path d="M735.211 209.242C735.534 220.87 737.472 221.193 743.932 224.1L750.069 226.684C752.007 227.653 752.33 231.529 750.069 231.529C739.087 230.883 730.043 230.883 720.999 230.883C711.955 230.883 703.235 230.883 692.253 231.529C689.992 231.529 690.315 227.653 692.253 226.684L698.39 224.1C704.85 221.193 706.465 220.87 707.111 209.242C709.048 174.359 709.048 74.8761 707.111 38.7005C706.788 30.3027 703.235 25.7807 698.39 23.8427L693.868 21.5818C690.638 20.2898 689.992 16.7368 693.868 16.0909C702.912 14.1529 717.123 11.5689 727.136 10.2769C733.596 9.63094 734.888 13.1839 734.888 18.3518C733.596 69.0621 734.242 175.005 735.211 209.242Z" fill="#0B0B0B"/>
<path d="M882.626 129.771C881.334 152.704 881.334 188.879 882.303 208.905C882.949 219.241 884.564 220.856 891.024 223.763L897.161 226.347C899.099 227.316 899.422 231.192 897.161 231.192C886.502 230.546 878.105 230.546 869.707 230.546C861.309 230.546 852.911 230.546 841.929 231.192C839.668 231.192 839.991 227.316 841.929 226.347L848.066 223.763C852.911 221.502 853.88 219.241 854.203 208.905C854.849 189.525 854.849 148.828 854.203 129.448C853.557 108.453 845.482 97.1483 828.363 97.1483C807.691 97.1483 793.803 107.807 790.896 126.864C790.25 159.164 790.896 182.742 792.188 208.905C792.511 218.918 793.803 221.502 798.648 223.763L804.785 226.347C806.722 227.316 807.045 231.192 804.785 231.192C794.126 230.546 785.405 230.546 777.007 230.546C768.609 230.546 760.211 230.546 749.229 231.192C746.968 231.192 747.291 227.316 749.229 226.347L755.366 223.763C761.826 220.856 763.764 220.533 764.087 208.905C765.379 174.021 764.087 149.797 764.087 113.944C764.087 105.546 760.211 101.347 755.366 99.0863L750.844 97.1483C747.614 95.8564 746.968 91.9804 750.844 91.3344C759.888 89.7195 774.1 87.1355 784.113 85.8435C790.573 84.8745 792.188 88.7505 791.865 93.9184C791.542 98.7633 791.542 103.285 791.542 107.807C800.263 93.9184 818.027 84.2285 837.084 84.2285C859.694 84.2285 874.875 93.5954 880.365 111.037C888.117 95.5334 906.851 84.2285 927.523 84.2285C956.915 84.2285 972.419 100.055 972.419 138.815C972.419 152.381 972.096 191.14 972.742 208.905C973.065 220.533 975.003 220.856 981.463 223.763L987.6 226.347C989.538 227.316 989.861 231.192 987.6 231.192C976.941 230.546 968.543 230.546 960.145 230.546C951.748 230.546 943.35 230.546 932.368 231.192C930.107 231.192 930.43 227.316 932.368 226.347L938.505 223.763C943.35 221.502 944.319 219.241 944.642 208.905C945.288 189.525 945.288 148.828 944.642 129.448C943.996 108.453 935.921 97.1483 918.802 97.1483C900.068 97.1483 887.148 107.807 882.626 123.634V129.771Z" fill="#0B0B0B"/>
<path d="M1163.85 209.931C1164.5 221.559 1166.11 221.882 1172.57 224.789L1178.71 227.373C1180.65 228.342 1180.97 232.218 1178.71 232.218C1167.73 231.572 1158.68 231.572 1149.64 231.572C1140.6 231.572 1131.88 231.572 1120.89 232.218C1118.63 232.218 1118.96 228.342 1120.89 227.373L1127.03 224.789C1133.49 221.882 1135.43 221.559 1135.75 209.931C1137.04 175.048 1135.75 150.823 1135.75 114.97C1135.75 106.573 1131.88 102.374 1127.03 100.113L1122.51 98.1747C1119.28 96.8827 1118.63 93.0068 1122.51 92.3608C1131.55 90.7458 1145.76 88.1618 1155.78 86.8699C1162.24 85.9009 1163.85 89.7768 1163.53 94.9448C1163.53 99.4667 1163.21 103.989 1163.21 108.188C1172.9 94.6218 1192.92 85.2549 1213.59 85.2549C1245.89 85.2549 1262.69 101.082 1262.69 139.841C1262.69 153.407 1262.37 192.166 1263.01 209.931C1263.33 221.559 1265.27 221.882 1271.73 224.789L1277.87 227.373C1279.81 228.342 1280.13 232.218 1277.87 232.218C1267.21 231.572 1258.17 231.572 1249.12 231.572C1240.08 231.572 1231.03 231.572 1220.05 232.218C1217.79 232.218 1218.12 228.342 1220.05 227.373L1226.19 224.789C1232.65 221.882 1234.59 221.559 1234.91 209.931C1235.56 190.551 1235.56 149.854 1234.91 130.474C1234.26 109.48 1224.9 98.1747 1205.52 98.1747C1181.62 98.1747 1165.79 109.157 1162.56 127.89C1161.91 160.19 1162.56 183.769 1163.85 209.931Z" fill="#0B0B0B"/>
<path d="M1320.21 160.183C1320.21 163.09 1320.86 163.413 1324.41 159.86C1342.18 140.48 1355.1 125.945 1369.95 110.441C1378.35 101.397 1380.94 95.2604 1374.15 92.3535L1370.92 90.7385C1368.66 89.7695 1368.99 86.8625 1371.25 86.8625C1385.78 87.1855 1401.29 87.5085 1413.88 86.8625C1416.14 86.8625 1416.47 90.4155 1413.24 91.0615L1407.1 92.0305C1396.76 93.9684 1388.04 98.1674 1374.48 112.702C1366.72 121.423 1362.2 125.622 1352.84 136.281C1365.76 159.537 1382.23 189.252 1393.21 208.955C1399.35 219.937 1403.22 221.875 1411.3 224.782L1417.11 226.72C1421.63 228.335 1420.67 232.211 1418.73 231.888C1396.12 230.919 1377.38 231.242 1357.36 232.211C1354.13 232.211 1353.48 228.658 1356.71 227.366L1362.85 224.782C1368.34 222.521 1366.72 218.322 1362.85 209.924C1354.77 192.159 1342.18 168.58 1334.43 155.984C1331.52 158.891 1325.7 165.027 1322.8 168.257C1321.18 169.872 1320.54 172.456 1320.21 175.686C1319.57 190.221 1320.54 201.849 1320.86 209.924C1321.18 221.552 1323.12 221.875 1329.58 224.782L1335.72 227.366C1337.66 228.335 1337.66 231.888 1336.04 232.211C1316.34 231.242 1302.45 231.242 1284.36 231.888L1277.9 232.211C1275.64 232.211 1275.96 228.335 1277.9 227.366L1284.04 224.782C1290.5 221.875 1292.11 221.552 1292.76 209.924C1294.7 175.04 1294.7 75.5577 1292.76 39.3822C1292.44 30.9843 1288.88 26.4624 1284.04 24.5244L1279.52 22.2634C1276.29 20.9714 1275.64 17.4185 1279.52 16.4495C1288.56 14.8345 1302.77 12.2506 1312.78 10.9586C1319.24 10.3126 1320.54 13.8655 1320.54 19.0335C1319.57 53.917 1320.21 114.64 1320.21 160.183Z" fill="#0B0B0B"/>
<path d="M1485.91 227.233C1444.05 240.559 1407.65 220.964 1394.22 178.799C1380.02 134.172 1401.44 98.1987 1438.99 86.2447C1476.54 74.2906 1504.58 85.7023 1517.33 109.778C1520.31 115.947 1518.24 117.962 1514.55 119.138L1422.52 148.435C1414.83 150.885 1418.59 159.516 1420.16 164.441C1431.04 198.604 1461.38 213.009 1495.24 202.231C1515.86 195.666 1526.35 182.835 1528.78 169.18C1529.55 165.206 1533.76 163.527 1533.9 168.227C1535.53 191.437 1520.07 216.357 1485.91 227.233ZM1421.05 143.818L1483.22 124.026C1485.38 123.34 1486.72 122.234 1485.12 119.353C1471.03 96.3825 1454.31 86.452 1437.38 91.8411C1420.46 97.2302 1411.95 114.174 1414.67 139.748C1415.13 143.33 1417.67 144.896 1421.05 143.818Z" fill="#0B0B0B"/>
<path d="M1508.95 292.364C1503.18 291.644 1496.37 288.843 1489.8 284.118C1486.51 281.755 1487.15 279.231 1488.55 275.825C1491.19 270.295 1493.35 266.008 1494.68 263.243C1496.48 259.236 1498.12 259.115 1499.4 259.275C1504.53 259.914 1497.48 277.264 1513.51 279.261C1529.54 281.259 1539.47 274.685 1552.68 252.245C1559.25 241.346 1577.15 215.258 1569.33 194.428C1560.83 171.235 1538.46 136.549 1527.43 107.508C1505.58 53.0303 1493.56 55.4384 1486.23 51.5951L1479.17 48.1122C1477.05 46.871 1477.49 43.3453 1479.77 43.3044C1490.63 44.9831 1513.35 48.1399 1522.96 49.3382C1532.58 50.5366 1564.35 54.1708 1574.32 55.0886C1577.85 55.5281 1576.73 59.2943 1575.01 60.0562L1569.88 62.0211C1564.39 64.2666 1526.85 52.1012 1553.27 114.309C1561.74 137.823 1574.4 158.931 1587.36 193.42C1603.81 165.851 1618.3 140.967 1628.83 121.773C1635.08 110.834 1629.55 105.588 1623.34 103.186L1619.93 101.785C1616.21 100.344 1617.09 95.897 1621.21 96.7368C1637.8 99.4551 1648.7 100.813 1665.12 102.209C1669.33 102.408 1668.45 106.856 1664.48 107.338L1660.88 107.539C1649.74 108.104 1643.49 111.231 1636.93 122.131C1616.59 154.749 1577.95 221.868 1567.54 240.101C1544 282.736 1530.42 295.04 1508.95 292.364Z" fill="#0B0B0B"/>
<path d="M1123.44 165.163C1123.44 206.046 1095.48 234.002 1054.3 234.002C1013.12 234.002 985.16 206.346 985.16 165.163C985.16 123.979 1014.92 96.0225 1054.3 96.0225C1095.78 96.0225 1123.44 123.979 1123.44 165.163ZM1096.39 165.163C1096.39 124.881 1075.94 100.532 1050.99 100.532C1026.04 100.532 1012.22 124.881 1012.22 165.163C1012.22 205.444 1032.06 229.193 1058.51 229.193C1082.26 229.193 1096.39 205.745 1096.39 165.163Z" fill="#0B0B0B"/>
</g>
<defs>
<clipPath id="clip0_520_113">
<rect width="1695" height="300" fill="white"/>
</clipPath>
<clipPath id="clip1_520_113">
<rect width="262.5" height="262.5" fill="white" transform="translate(18.75 18.751)"/>
</clipPath>
</defs>
</svg>
