<svg xmlns="http://www.w3.org/2000/svg" width="517" height="117" viewBox="0 0 517 117" fill="none">
<path d="M17.1863 38.9854C24.0162 31.0172 42.4821 15.2073 50.3238 15.2073C54.1182 15.2073 56.2684 15.5867 59.3039 16.4721C60.8216 16.978 61.3275 18.2428 60.9481 19.5076C60.1892 21.7842 59.3039 24.5667 58.4185 27.9817C58.0391 29.2465 56.5213 29.7524 56.2684 28.2346C55.13 23.1755 51.9807 18.3946 45.0117 20.2664C38.0427 22.1383 18.0716 38.9854 16.9333 47.333C16.6804 59.222 16.8068 68.2021 17.4392 77.4351C17.5657 81.103 18.704 82.6207 22.3719 83.8855L24.775 84.7708C25.7869 85.1503 25.9133 86.668 24.5221 86.668C17.3128 86.4151 10.2299 86.2886 3.14708 86.5416L0.617496 86.668C-0.267859 86.668 -0.14138 85.1503 0.617496 84.7708L3.0206 83.759C5.55019 82.6207 6.30906 82.4942 6.43554 77.941C6.94146 64.2812 6.43554 54.7953 6.43554 40.7561C6.43554 37.4676 4.91779 35.8234 3.0206 34.938L1.24989 34.1792C-0.0149005 33.6732 -0.267859 32.1555 1.24989 31.9025C4.79131 31.2701 10.3564 30.2583 14.2773 29.7524C16.8068 29.3729 17.4392 30.8907 17.3128 32.9144C17.3128 34.5586 17.1863 37.3411 17.1863 38.9854Z" fill="white"/>
<path d="M50.1976 87.3003C32.9964 86.8829 21.7397 75.6642 21.7397 58.3366C21.7397 39.9971 34.0082 29.1199 49.4387 29.1199C64.8692 29.1199 73.9757 36.7086 75.8729 47.2064C76.2523 49.8625 75.2405 50.3684 73.7227 50.3684H35.9054C32.7434 50.3684 33.1229 54.0363 33.1229 56.0599C33.1229 70.0991 42.9883 79.0792 56.648 79.0792C73.3939 79.0792 78.1495 55.3011 80.6791 50.4949C81.4379 49.1036 83.2087 48.9771 82.7027 50.7478C80.5526 59.6014 75.8729 87.9327 50.1976 87.3003ZM35.9054 48.4712H61.4542C62.3396 48.4712 62.972 48.2182 62.719 46.9534C60.1894 36.7086 55.1303 31.0171 48.1739 31.0171C41.2175 31.0171 36.0319 36.3292 34.0082 46.1946C33.7553 47.5858 34.5141 48.4712 35.9054 48.4712Z" fill="white"/>
<path d="M104.963 31.1309C84.726 31.0044 84.2454 47.7503 81.8296 53.6189C79.6668 58.8425 77.1373 58.8425 79.591 52.4426C80.3625 50.419 83.8154 40.9836 86.0035 37.341C89.7978 31.0171 98.9043 29.5499 105.861 29.1199C120.785 29.1199 127.995 37.0881 127.995 51.8861C128.829 60.8662 125.629 78.7883 129.765 81.1028C130.777 81.1028 131.536 80.7234 132.042 79.7116C132.801 78.1938 134.192 79.2056 133.56 80.9764C132.092 89.109 117.029 89.4252 116.358 80.7234C84.3213 106.411 56.0658 51.7976 116.611 47.4594C116.106 38.9853 115.22 31.2068 104.975 31.1435L104.963 31.1309ZM116.599 49.9889C97.121 53.2774 92.5677 58.4631 92.5677 69.4667C91.5433 84.6063 109.086 85.8964 116.472 77.0555C116.852 71.7434 117.231 64.2811 116.599 49.9889Z" fill="white"/>
<path d="M149.863 77.9409C149.989 82.4941 150.748 82.6206 153.278 83.7589L155.681 84.7707C156.439 85.1502 156.566 86.6679 155.681 86.6679C151.38 86.415 147.839 86.415 144.297 86.415C140.756 86.415 137.341 86.415 133.041 86.6679C132.155 86.6679 132.282 85.1502 133.041 84.7707L135.444 83.7589C137.974 82.6206 138.606 82.4941 138.859 77.9409C139.618 64.2811 139.618 25.3255 138.859 11.1598C138.732 7.87138 137.341 6.10067 135.444 5.34179L133.673 4.45644C132.408 3.95052 132.155 2.55925 133.673 2.30629C137.215 1.54742 142.78 0.535582 146.701 0.0296652C149.23 -0.223293 149.736 1.16798 149.736 3.19165C149.23 23.0489 149.483 64.5341 149.863 77.9409Z" fill="white"/>
<path d="M207.589 46.8186C207.083 55.7986 207.083 69.9643 207.462 77.806C207.715 81.8533 208.348 82.4857 210.877 83.624L213.28 84.6359C214.039 85.0153 214.166 86.533 213.28 86.533C209.107 86.2801 205.818 86.2801 202.53 86.2801C199.241 86.2801 195.953 86.2801 191.652 86.533C190.767 86.533 190.894 85.0153 191.652 84.6359L194.055 83.624C195.953 82.7387 196.332 81.8533 196.459 77.806C196.712 70.2172 196.712 54.2808 196.459 46.6921C196.206 38.4709 193.044 34.0442 186.34 34.0442C178.246 34.0442 172.807 38.218 171.669 45.6803C171.416 58.3282 171.669 67.5612 172.175 77.806C172.301 81.7268 172.807 82.7387 174.704 83.624L177.107 84.6359C177.866 85.0153 177.993 86.533 177.107 86.533C172.933 86.2801 169.519 86.2801 166.23 86.2801C162.942 86.2801 159.653 86.2801 155.353 86.533C154.467 86.533 154.594 85.0153 155.353 84.6359L157.756 83.624C160.286 82.4857 161.044 82.3592 161.171 77.806C161.677 64.1462 161.171 54.6603 161.171 40.6211C161.171 37.3326 159.653 35.6884 157.756 34.803L155.985 34.0442C154.72 33.5382 154.467 32.0205 155.985 31.7675C159.527 31.1351 165.092 30.1233 169.013 29.6174C171.542 29.2379 172.175 30.7557 172.048 32.7794C171.922 34.6766 171.922 36.4473 171.922 38.218C175.337 32.7794 182.293 28.985 189.755 28.985C198.609 28.985 204.553 32.6529 206.703 39.4828C209.739 33.4118 217.075 28.985 225.169 28.985C236.679 28.985 242.75 35.1825 242.75 50.36C242.75 55.6721 242.624 70.8496 242.876 77.806C243.003 82.3592 243.762 82.4857 246.291 83.624L248.695 84.6359C249.453 85.0153 249.58 86.533 248.695 86.533C244.521 86.2801 241.232 86.2801 237.944 86.2801C234.655 86.2801 231.367 86.2801 227.067 86.533C226.181 86.533 226.308 85.0153 227.067 84.6359L229.47 83.624C231.367 82.7387 231.746 81.8533 231.873 77.806C232.126 70.2172 232.126 54.2808 231.873 46.6921C231.62 38.4709 228.458 34.0442 221.754 34.0442C214.419 34.0442 209.359 38.218 207.589 44.4155V46.8186Z" fill="white"/>
<path d="M317.712 78.2084C317.965 82.7617 318.598 82.8882 321.127 84.0265L323.53 85.0383C324.289 85.4178 324.416 86.9355 323.53 86.9355C319.23 86.6825 315.689 86.6826 312.147 86.6826C308.606 86.6826 305.191 86.6825 300.89 86.9355C300.005 86.9355 300.132 85.4178 300.89 85.0383L303.294 84.0265C305.823 82.8882 306.582 82.7617 306.708 78.2084C307.214 64.5487 306.708 55.0627 306.708 41.0235C306.708 37.7351 305.191 36.0908 303.294 35.2055L301.523 34.4466C300.258 33.9407 300.005 32.423 301.523 32.17C305.064 31.5376 310.629 30.5258 314.55 30.0198C317.08 29.6404 317.712 31.1582 317.586 33.1818C317.586 34.9525 317.459 36.7232 317.459 38.3675C321.254 33.0553 329.095 29.3875 337.19 29.3875C349.838 29.3875 356.415 35.5849 356.415 50.7624C356.415 56.0746 356.288 71.2521 356.541 78.2084C356.668 82.7617 357.427 82.8882 359.956 84.0265L362.359 85.0383C363.118 85.4178 363.245 86.9355 362.359 86.9355C358.186 86.6825 354.644 86.6826 351.103 86.6826C347.561 86.6826 344.02 86.6825 339.72 86.9355C338.834 86.9355 338.961 85.4178 339.72 85.0383L342.123 84.0265C344.652 82.8882 345.411 82.7617 345.538 78.2084C345.791 70.6197 345.791 54.6833 345.538 47.0945C345.285 38.8734 341.617 34.4466 334.028 34.4466C324.669 34.4466 318.471 38.7469 317.206 46.0827C316.953 58.7306 317.206 67.9636 317.712 78.2084Z" fill="white"/>
<path d="M378.928 58.7308C378.928 59.8691 379.181 59.9956 380.573 58.6043C387.529 51.0155 392.588 45.324 398.406 39.253C401.695 35.7116 402.707 33.3084 400.05 32.1701L398.786 31.5377C397.9 31.1583 398.027 30.02 398.912 30.02C404.604 30.1465 410.675 30.2729 415.607 30.02C416.493 30.02 416.619 31.4113 415.354 31.6642L412.951 32.0436C408.904 32.8025 405.489 34.4468 400.177 40.1383C397.141 43.5533 395.371 45.1975 391.703 49.3713C396.762 58.4778 403.212 70.1139 407.513 77.8291C409.916 82.1294 411.434 82.8883 414.596 84.0266L416.872 84.7855C418.643 85.4179 418.263 86.9356 417.505 86.8092C408.651 86.4297 401.315 86.5562 393.474 86.9356C392.209 86.9356 391.956 85.5444 393.221 85.0384L395.624 84.0266C397.774 83.1413 397.141 81.497 395.624 78.2086C392.462 71.2522 387.529 62.0192 384.494 57.0865C383.355 58.2248 381.079 60.628 379.94 61.8927C379.308 62.5251 379.055 63.537 378.928 64.8018C378.675 70.4933 379.055 75.0466 379.181 78.2086C379.308 82.7618 380.067 82.8883 382.596 84.0266L384.999 85.0384C385.758 85.4179 385.758 86.8091 385.126 86.9356C377.411 86.5562 371.972 86.5562 364.889 86.8092L362.36 86.9356C361.474 86.9356 361.601 85.4179 362.36 85.0384L364.763 84.0266C367.292 82.8883 367.925 82.7618 368.178 78.2086C368.937 64.5488 368.937 25.5932 368.178 11.4275C368.051 8.13908 366.66 6.36837 364.763 5.60949L362.992 4.72414C361.727 4.21822 361.474 2.82695 362.992 2.44751C366.533 1.81512 372.099 0.803282 376.019 0.297365C378.549 0.044407 379.055 1.43568 379.055 3.45935C378.675 17.1191 378.928 40.8972 378.928 58.7308Z" fill="white"/>
<path d="M443.823 84.9824C427.432 90.2006 413.176 82.5276 407.92 66.0165C402.356 48.5413 410.747 34.4549 425.45 29.7739C440.154 25.0929 451.133 29.5615 456.125 38.989C457.293 41.4048 456.482 42.1939 455.036 42.6543L419.001 54.1265C415.988 55.0858 417.462 58.4657 418.076 60.394C422.335 73.7716 434.218 79.4124 447.476 75.1919C455.55 72.6212 459.658 67.5968 460.611 62.2497C460.912 60.6938 462.561 60.0361 462.616 61.8768C463.253 70.9654 457.201 80.7235 443.823 84.9824ZM418.425 52.3188L442.77 44.5683C443.614 44.2997 444.14 43.8668 443.515 42.7383C437.997 33.7437 431.449 29.8551 424.821 31.9654C418.192 34.0756 414.862 40.7106 415.927 50.7249C416.108 52.1274 417.099 52.7408 418.425 52.3188Z" fill="white"/>
<path d="M452.826 110.487C450.567 110.205 447.9 109.108 445.326 107.258C444.04 106.333 444.29 105.344 444.839 104.011C445.873 101.845 446.72 100.166 447.237 99.0838C447.943 97.5148 448.586 97.4675 449.088 97.53C451.096 97.7803 448.337 104.574 454.613 105.356C460.888 106.138 464.778 103.564 469.952 94.7771C472.523 90.5091 479.532 80.2938 476.47 72.1372C473.141 63.0552 464.382 49.4727 460.064 38.1006C451.506 16.7683 446.8 17.7113 443.929 16.2063L441.167 14.8424C440.335 14.3564 440.507 12.9758 441.402 12.9598C445.653 13.6172 454.549 14.8533 458.314 15.3225C462.079 15.7918 474.52 17.2149 478.427 17.5743C479.807 17.7464 479.368 19.2212 478.694 19.5195L476.686 20.2889C474.537 21.1682 459.836 16.4044 470.183 40.7639C473.497 49.9714 478.457 58.2371 483.529 71.7425C489.973 60.9469 495.648 51.2027 499.771 43.6868C502.217 39.4031 500.052 37.3488 497.62 36.4084L496.286 35.8598C494.827 35.2956 495.171 33.5541 496.787 33.883C503.282 34.9474 507.55 35.4792 513.982 36.026C515.629 36.1038 515.285 37.8453 513.732 38.0341L512.32 38.113C507.959 38.3343 505.512 39.5588 502.94 43.8268C494.976 56.5996 479.846 82.8822 475.77 90.0216C466.552 106.717 461.235 111.535 452.826 110.487Z" fill="white"/>
<path d="M301.887 60.6782C301.887 76.6872 290.94 87.6345 274.813 87.6345C258.687 87.6345 247.739 76.8049 247.739 60.6782C247.739 44.5515 259.393 33.6041 274.813 33.6041C291.058 33.6041 301.887 44.5515 301.887 60.6782ZM291.293 60.6782C291.293 44.9046 283.289 35.3698 273.518 35.3698C263.748 35.3698 258.333 44.9046 258.333 60.6782C258.333 76.4518 266.103 85.7511 276.461 85.7511C285.761 85.7511 291.293 76.5695 291.293 60.6782Z" fill="white"/>
</svg>
