<svg width="240" height="240" viewBox="0 0 240 240" fill="none" xmlns="http://www.w3.org/2000/svg">
<path d="M144.112 210C94.3082 223.354 42.9321 193.673 29.587 143.837C16.242 94.0016 45.9039 42.5932 95.7081 29.2399C145.513 15.8864 196.889 45.567 210.234 95.4023C223.579 145.238 193.917 196.647 144.112 210ZM96.4084 31.8554C48.0453 44.8224 19.242 94.7426 32.2008 143.136C45.1597 191.53 95.0487 220.352 143.412 207.385C191.775 194.418 220.579 144.497 207.62 96.1031C194.661 47.7097 144.771 18.8884 96.4084 31.8554Z" fill="#00906B"/>
<path d="M226.172 91.1084C223.109 89.2533 221.893 85.4136 223.331 82.1321C224.968 78.3958 223.15 74.0489 219.341 72.5938C215.996 71.3159 214.115 67.755 214.944 64.2694C215.888 60.3007 213.323 56.3486 209.316 55.5974C205.797 54.9376 203.311 51.77 203.504 48.1923C203.725 44.1187 200.496 40.6883 196.419 40.6652C192.839 40.6449 189.827 37.9723 189.38 34.4175C188.87 30.3698 185.081 27.5716 181.065 28.2772C177.538 28.897 174.099 26.8055 173.024 23.3877C171.8 19.4962 167.572 17.42 163.747 18.8316C160.388 20.0716 156.63 18.6283 154.963 15.4574C153.064 11.8472 148.534 10.5596 145.022 12.6321C141.938 14.4524 137.983 13.7035 135.776 10.8816C133.264 7.66859 128.577 7.21111 125.492 9.87772C122.782 12.2198 118.757 12.1897 116.082 9.8073C113.037 7.09476 108.343 7.482 105.783 10.6571C103.535 13.4457 99.5695 14.1352 96.5128 12.269C93.0324 10.1442 88.4835 11.3638 86.5312 14.9452C84.8165 18.0908 81.0376 19.4777 77.697 18.1876C73.8934 16.7187 69.6352 18.7316 68.3533 22.6042C67.2275 26.0056 63.7569 28.0453 60.2398 27.3729C56.2352 26.6072 52.4046 29.3484 51.8345 33.388C51.3336 36.9358 48.2828 39.563 44.7022 39.5297C40.6253 39.4917 37.3454 42.8734 37.5053 46.9498C37.6457 50.5301 35.1126 53.66 31.5836 54.2671C27.5656 54.9582 24.9418 58.8715 25.8265 62.8539C26.6034 66.3516 24.6697 69.8838 21.3057 71.1116C17.4755 72.5095 15.5922 76.8286 17.1733 80.589C18.5619 83.8917 17.2895 87.7127 14.1987 89.5218C10.6796 91.5815 9.59724 96.1678 11.8239 99.5852C13.7796 102.587 13.2095 106.574 10.4912 108.906C7.39609 111.561 7.14966 116.267 9.95034 119.232C12.4101 121.836 12.5606 125.86 10.3021 128.641C7.73068 131.807 8.3279 136.481 11.6126 138.898C14.4976 141.02 15.3638 144.953 13.6378 148.092C11.6726 151.667 13.0943 156.159 16.7575 157.95C19.9748 159.523 21.529 163.238 20.3909 166.636C19.0951 170.504 21.2956 174.67 25.2195 175.777C28.6657 176.75 30.8579 180.128 30.3444 183.674C29.7597 187.711 32.6683 191.418 36.7268 191.806C40.2912 192.148 43.0509 195.08 43.1784 198.66C43.3235 202.737 46.8467 205.864 50.9093 205.522C54.4775 205.221 57.7159 207.612 58.4803 211.113C59.3506 215.098 63.3752 217.546 67.3114 216.483C70.7684 215.549 74.3817 217.323 75.7584 220.631C77.3258 224.397 81.7225 226.086 85.4058 224.337C88.6407 222.8 92.5124 223.901 94.4573 226.909C96.6716 230.335 101.299 231.211 104.611 228.832C107.52 226.742 111.526 227.133 113.976 229.746C116.766 232.721 121.475 232.756 124.309 229.823C126.799 227.248 130.81 226.916 133.687 229.049C136.963 231.478 141.603 230.671 143.868 227.279C145.858 224.3 149.746 223.258 152.957 224.842C156.614 226.646 161.036 225.024 162.659 221.282C164.085 217.995 167.725 216.275 171.167 217.26C175.087 218.382 179.148 215.995 180.078 212.023C180.894 208.534 184.168 206.191 187.731 206.546C191.788 206.949 195.358 203.875 195.564 199.801C195.745 196.222 198.548 193.332 202.117 193.044C206.181 192.716 209.145 189.054 208.621 185.008C208.16 181.455 210.402 178.11 213.863 177.189C217.803 176.141 220.065 172.008 218.828 168.121C217.741 164.707 219.35 161.015 222.591 159.491C226.28 157.755 227.769 153.284 225.857 149.681C224.178 146.516 225.103 142.596 228.02 140.517C231.34 138.15 232.007 133.485 229.483 130.281C227.267 127.467 227.477 123.445 229.976 120.879C232.82 117.956 232.644 113.247 229.589 110.546C226.906 108.173 226.396 104.178 228.396 101.206C230.674 97.8225 229.66 93.2206 226.172 91.1084ZM145.158 213.904C93.1186 227.857 39.6289 196.955 25.6851 144.883C11.7413 92.8114 42.6236 39.2881 94.6626 25.3356C146.702 11.383 200.191 42.2847 214.135 94.3564C228.079 146.428 197.197 199.951 145.158 213.904Z" fill="#00906B"/>
<path d="M135.054 176.174C103.891 184.529 71.7428 165.957 63.3922 134.773C55.0418 103.589 73.6023 71.4212 104.766 63.0656C135.931 54.7098 168.078 73.2821 176.429 104.466C184.779 135.65 166.219 167.818 135.054 176.174ZM105.467 65.6811C75.7436 73.6503 58.0419 104.331 66.0061 134.072C73.9704 163.814 104.631 181.528 134.354 173.558C164.077 165.589 181.779 134.908 173.815 105.167C165.851 75.4253 135.189 57.7119 105.467 65.6811Z" fill="#00906B"/>
<path d="M45.1665 111.672L46.2316 105.057L49.5365 105.589L48.4714 112.204L45.1665 111.672Z" fill="#00906B"/>
<path d="M177.054 70.8072L181.22 76.0524L178.598 78.1362L174.433 72.891L177.054 70.8072Z" fill="#00906B"/>
<path d="M61.5475 163.196L65.6221 168.512L62.9663 170.551L58.8916 165.235L61.5475 163.196Z" fill="#00906B"/>
<path d="M191.22 135.655L192.175 129.023L195.488 129.501L194.534 136.132L191.22 135.655Z" fill="#00906B"/>
<path d="M106.482 69.4754C78.8059 76.8959 62.3814 105.362 69.7973 133.056C77.2132 160.75 105.661 177.185 133.338 169.764C161.015 162.344 177.439 133.878 170.023 106.184C162.607 78.4897 134.159 62.0548 106.482 69.4754ZM116.697 162.164L79.6419 140.757L90.4293 122.061L108.8 132.675L137.785 82.4399L156.469 93.2341L116.697 162.164Z" fill="#00906B"/>
<path d="M158.373 68.8821L171.456 52.4558L175.539 55.708C178.12 57.764 178.247 60.2047 176.154 62.8329L169.538 71.1399C167.444 73.7681 165.037 74.1903 162.456 72.1343L158.373 68.8821ZM173.623 58.0172L172.168 56.8584L162.823 68.5915L164.278 69.7503C165.099 70.4045 165.928 70.3746 166.863 69.2013L173.666 60.6596C174.601 59.4863 174.444 58.6714 173.623 58.0172Z" fill="#00906B"/>
<path d="M161.414 49.6752L158.426 54.7043L162.32 57.0184L160.788 59.5974L156.893 57.2833L153.752 62.5704L158.652 65.4821L157.119 68.0612L149.382 63.4636L160.11 45.4104L167.847 50.0079L166.314 52.587L161.414 49.6752Z" fill="#00906B"/>
<path d="M144.412 61.1037L153.184 42.0236L156.182 43.4021L147.41 62.4822L144.412 61.1037Z" fill="#00906B"/>
<path d="M143.877 41.7606L141.773 47.7308L145.791 49.1466L144.794 51.9761L140.776 50.5603L137.895 58.7376L134.783 57.6409L141.762 37.8344L149.995 40.7357L148.998 43.5652L143.877 41.7606Z" fill="#00906B"/>
<path d="M129.484 56.3331L134.26 35.8835L137.474 36.6341L132.697 57.0837L129.484 56.3331Z" fill="#00906B"/>
<path d="M120.319 37.0594L120.67 34.08L130.8 35.2741L130.449 38.2535L127.023 37.8496L124.916 55.7258L121.638 55.3395L123.745 37.4633L120.319 37.0594Z" fill="#00906B"/>
<path d="M118.365 55.0518L115.012 55.2596C114.799 54.7318 114.658 54.4098 114.553 52.7031L114.348 49.4094C114.228 47.4632 113.525 46.7854 112.027 46.8781L110.89 46.9487L111.418 55.4823L108.125 55.6864L106.826 34.7266L111.796 34.4186C115.21 34.207 116.775 35.7031 116.976 38.9369L117.078 40.5837C117.211 42.7396 116.61 44.1896 115.185 44.9692C116.875 45.5558 117.512 47.1093 117.648 49.2951L117.848 52.5289C117.911 53.547 117.988 54.2937 118.365 55.0518ZM111.892 37.4184L110.305 37.5168L110.704 43.9544L111.992 43.8746C113.219 43.7985 113.934 43.2132 113.83 41.5364L113.702 39.4704C113.61 37.9732 113.06 37.346 111.892 37.4184Z" fill="#00906B"/>
<path d="M97.2878 39.7474L98.6695 45.4319L103.071 44.362L103.78 47.2771L99.378 48.3471L100.831 54.3231L106.369 52.9768L107.078 55.8919L98.3325 58.0176L93.3726 37.6117L102.118 35.4861L102.827 38.4012L97.2878 39.7474Z" fill="#00906B"/>
<path d="M91.3808 52.4888L94.2319 51.2218L95.3649 53.7714C96.7294 56.8419 95.9738 59.2787 93.013 60.5944C90.0522 61.9102 87.7373 60.8378 86.3728 57.7674L81.9383 47.7883C80.5738 44.7178 81.3294 42.281 84.2902 40.9653C87.251 39.6496 89.5659 40.7219 90.9304 43.7924L91.7588 45.6566L88.9077 46.9236L87.994 44.8675C87.3848 43.4967 86.5502 43.2439 85.5907 43.6702C84.6312 44.0966 84.2595 44.8855 84.8687 46.2563L89.4737 56.6192C90.0829 57.9899 90.9053 58.2154 91.8648 57.789C92.8243 57.3626 93.2082 56.6011 92.599 55.2303L91.3808 52.4888Z" fill="#00906B"/>
<path d="M78.7088 65.0766L81.2617 63.1806L83.1577 65.7335L80.6048 67.6296L78.7088 65.0766Z" fill="#00906B"/>
<path d="M61.2797 60.9938L59.2256 58.8073L66.6596 51.8234L68.7137 54.0099L66.1993 56.3721L78.5238 69.491L76.1186 71.7505L63.7941 58.6316L61.2797 60.9938Z" fill="#00906B"/>
<path d="M52.2513 67.5892L67.3661 76.035L55.324 63.5941L57.1712 61.1923L71.842 76.5633L68.8425 80.4632L50.2212 70.2288L52.2513 67.5892Z" fill="#00906B"/>
<path d="M49.3914 81.8492L59.4616 87.0632C60.7936 87.7529 61.6032 87.4289 62.086 86.4965C62.5688 85.5641 62.3661 84.7159 61.0341 84.0262L50.9639 78.8121C49.6318 78.1224 48.8222 78.4464 48.3394 79.3789C47.8566 80.3113 48.0593 81.1595 49.3914 81.8492ZM57.7578 89.8972L48.0605 84.8762C45.0768 83.3313 44.1856 80.8767 45.6753 77.9995C47.1651 75.1223 49.6839 74.4333 52.6677 75.9782L62.3649 80.9992C65.3487 82.5441 66.2398 84.9987 64.7501 87.8759C63.2604 90.7531 60.7415 91.4421 57.7578 89.8972Z" fill="#00906B"/>
<path d="M52.2865 94.8793L49.4227 93.9856L50.799 89.5754L57.1566 91.5594C60.3641 92.5603 61.6964 94.736 60.7312 97.8289C59.7661 100.922 57.4328 101.954 54.2253 100.953L43.8011 97.6996C40.5936 96.6987 39.2613 94.523 40.2265 91.4301C41.1916 88.3372 43.5249 87.3054 46.7324 88.3064L48.6798 88.9141L47.7503 91.8924L45.6025 91.2221C44.1706 90.7753 43.4299 91.2355 43.1171 92.2379C42.8043 93.2402 43.1518 94.04 44.5837 94.4869L55.4088 97.865C56.8407 98.3118 57.5528 97.8427 57.8656 96.8404C58.1784 95.838 57.8595 95.0471 56.4276 94.6003L52.7333 93.4474L52.2865 94.8793Z" fill="#00906B"/>
<path d="M177.472 183.524L174.887 185.671C174.404 185.37 174.101 185.193 173.008 183.878L170.899 181.339C169.653 179.839 168.686 179.707 167.532 180.665L166.655 181.394L172.118 187.971L169.579 190.08L156.162 173.925L159.992 170.743C162.623 168.558 164.77 168.842 166.84 171.334L167.894 172.604C169.275 174.265 169.645 175.791 168.955 177.261C170.665 176.737 172.096 177.615 173.495 179.3L175.566 181.792C176.217 182.577 176.72 183.135 177.472 183.524ZM161.84 173.108L160.617 174.124L164.738 179.086L165.73 178.262C166.677 177.476 166.909 176.581 165.835 175.289L164.512 173.697C163.554 172.543 162.74 172.361 161.84 173.108Z" fill="#00906B"/>
<path d="M151.719 182.031L157.293 191.907C158.03 193.213 158.885 193.385 159.799 192.869C160.714 192.353 161.008 191.532 160.271 190.226L154.698 180.35C153.96 179.044 153.106 178.872 152.191 179.388C151.277 179.904 150.982 180.724 151.719 182.031ZM154.316 193.346L148.949 183.836C147.297 180.909 147.895 178.367 150.717 176.775C153.538 175.183 156.023 175.985 157.675 178.911L163.042 188.421C164.693 191.347 164.096 193.889 161.274 195.482C158.452 197.074 155.967 196.272 154.316 193.346Z" fill="#00906B"/>
<path d="M142.842 202.788L136.182 182.872L141.133 181.216C144.263 180.17 146.379 181.391 147.445 184.578L150.813 194.65C151.878 197.836 150.922 200.086 147.793 201.132L142.842 202.788ZM142.027 184.08L140.263 184.67L145.02 198.896L146.784 198.306C147.78 197.973 148.206 197.261 147.731 195.839L144.268 185.482C143.792 184.06 143.023 183.747 142.027 184.08Z" fill="#00906B"/>
<path d="M134.328 204.318L128.31 189.757L130.252 204.842L127.306 205.222L124.625 184.393L128.731 183.865L133.698 195.899L132.093 183.432L135.009 183.057L137.69 203.885L134.328 204.318Z" fill="#00906B"/>
<path d="M117.828 187.036L117.487 192.876L122.009 193.14L121.834 196.135L117.311 195.871L116.952 202.01L122.642 202.343L122.467 205.338L113.483 204.812L114.709 183.848L123.694 184.374L123.519 187.369L117.828 187.036Z" fill="#00906B"/>
<path d="M106.166 181.96L104.823 199.222L111.081 183.078L114.035 183.75L106.217 203.508L101.42 202.417L102.919 181.221L106.166 181.96Z" fill="#00906B"/>
</svg>
